<svg xmlns="http://www.w3.org/2000/svg" viewBox="0 0 72 72" role="img" aria-labelledby="title desc">
  <title id="title">EconoDeal</title>
  <desc id="desc">Logo lumineux illustrant une flèche de croissance et une poignée de main pour les revendeurs.</desc>
  <defs>
    <linearGradient id="badge" x1="0" y1="0" x2="1" y2="1">
      <stop offset="0%" stop-color="#22c55e" />
      <stop offset="55%" stop-color="#34d399" />
      <stop offset="100%" stop-color="#60a5fa" />
    </linearGradient>
    <linearGradient id="spark" x1="0" y1="0" x2="1" y2="0">
      <stop offset="0%" stop-color="#facc15" />
      <stop offset="100%" stop-color="#60a5fa" />
    </linearGradient>
    <filter id="glow" x="-20%" y="-20%" width="140%" height="140%">
      <feDropShadow dx="0" dy="6" stdDeviation="6" flood-color="#22c55e" flood-opacity="0.35" />
    </filter>
  </defs>
  <g fill="none" stroke-linecap="round" stroke-linejoin="round">
    <path d="M60 50a18 18 0 1 1-36 0 18 18 0 0 1 36 0Z" fill="rgba(15,23,42,0.92)" stroke="url(#badge)" stroke-width="3" filter="url(#glow)" />
    <path d="M22 20h18a8 8 0 0 1 8 8v8" fill="rgba(15,23,42,0.8)" stroke="url(#badge)" stroke-width="3" />
    <path d="M20 42 31 53c2.4 2.4 6.3 2.4 8.7 0l3.6-3.6a5 5 0 0 0 0-7l-4-4" stroke="url(#badge)" stroke-width="3.4" />
    <path d="M24 38 34 48a3.5 3.5 0 0 0 5 0l3.2-3.2a3.5 3.5 0 0 0 0-5l-9-9" stroke="#c4f1f9" stroke-width="2.2" />
    <path d="M38 22h12l-3.2-3.2" stroke="url(#badge)" stroke-width="3" />
    <path d="m44 16 6-6" stroke="url(#spark)" stroke-width="3" />
    <circle cx="50" cy="10" r="3" fill="#facc15" stroke="#fdf5d5" stroke-width="1.5" />
    <path d="M17 30c-3-3-3-8 0-11l5.5-5.5" stroke="#38bdf8" stroke-width="2.5" />
  </g>
</svg>
